<svg width="278" height="88" viewBox="0 0 278 88" fill="none" xmlns="http://www.w3.org/2000/svg">
<g clip-path="url(#clip0_20_290)">
<path d="M87.6363 0C80.5573 0.00738617 73.7704 2.80701 68.7648 7.78454C63.7592 12.7621 60.9438 19.511 60.9364 26.5502H67.498C67.498 21.2392 69.6197 16.1457 73.3964 12.3902C77.173 8.63469 82.2953 6.52488 87.6363 6.52488C92.9773 6.52488 98.0995 8.63469 101.876 12.3902C105.653 16.1457 107.775 21.2392 107.775 26.5502H114.336C114.328 19.5113 111.512 12.7631 106.507 7.7858C101.501 2.80851 94.7149 0.00852002 87.6363 0Z" fill="#209BD8"/>
<path d="M161.275 59.8472H154.713C154.713 65.1582 152.592 70.2518 148.815 74.0072C145.038 77.7627 139.916 79.8725 134.575 79.8725C129.234 79.8725 124.112 77.7627 120.335 74.0072C116.559 70.2518 114.437 65.1582 114.437 59.8472H107.875C107.884 66.8861 110.7 73.6343 115.705 78.6116C120.71 83.5889 127.497 86.3889 134.575 86.3974C141.654 86.39 148.441 83.5904 153.447 78.6129C158.452 73.6353 161.268 66.8865 161.275 59.8472Z" fill="#209BD8"/>
<path d="M158.836 15.2033C160.64 15.2033 162.103 13.7491 162.103 11.9552C162.103 10.1613 160.64 8.70703 158.836 8.70703C157.032 8.70703 155.57 10.1613 155.57 11.9552C155.57 13.7491 157.032 15.2033 158.836 15.2033Z" fill="#209BD8"/>
<path d="M12.5441 54.0592C10.9009 54.0765 9.26883 53.7902 7.73077 53.215C6.30909 52.6868 5.00777 51.8817 3.90314 50.8468C2.82832 49.8355 1.97368 48.6155 1.39215 47.2624C0.202638 44.3839 0.202638 41.155 1.39215 38.2764C1.97631 36.9212 2.83613 35.7008 3.91752 34.692C5.0245 33.6602 6.32518 32.8555 7.74516 32.3239C9.26683 31.7527 10.8817 31.4664 12.5081 31.4797C14.1421 31.4604 15.7651 31.7468 17.2927 32.3239C18.7017 32.8559 19.9906 33.6608 21.0843 34.692C22.1896 35.7272 23.0657 36.9802 23.6567 38.371C24.2476 39.7617 24.5403 41.2598 24.5163 42.7694C24.5315 44.3181 24.2228 45.853 23.6097 47.2767C23.024 48.6311 22.1644 49.8512 21.0843 50.8611C19.9868 51.884 18.6988 52.6836 17.2927 53.215C15.7771 53.7902 14.1662 54.0766 12.5441 54.0592ZM12.5081 49.7522C13.4365 49.7636 14.3582 49.5935 15.2206 49.2514C16.038 48.9276 16.7799 48.4406 17.4006 47.8205C18.0332 47.1898 18.5302 46.4376 18.8611 45.6098C19.5518 43.7785 19.5518 41.7604 18.8611 39.9291C18.5325 39.1052 18.0435 38.3539 17.4222 37.7184C16.8041 37.0951 16.0614 36.6077 15.2421 36.2875C14.3734 35.9501 13.448 35.7801 12.5153 35.7867C11.5869 35.7752 10.6653 35.9454 9.80288 36.2875C8.97914 36.6168 8.2315 37.1095 7.60558 37.7356C6.97966 38.3617 6.48858 39.108 6.16231 39.9291C5.47157 41.753 5.47157 43.7644 6.16231 45.5883C6.48893 46.4196 6.978 47.1783 7.60127 47.8205C8.21939 48.4437 8.96204 48.9312 9.78129 49.2514C10.6491 49.5922 11.5752 49.7623 12.5081 49.7522Z" fill="#209BD8"/>
<path d="M35.1214 53.9304C33.8259 53.9523 32.5429 53.6755 31.3729 53.1219C30.2799 52.5858 29.3858 51.7192 28.8187 50.6465C28.1669 49.324 27.8554 47.8613 27.9122 46.3896V36.9099H32.8047V45.6741C32.7103 46.7717 33.0281 47.8652 33.6968 48.7434C34.0209 49.0794 34.4147 49.3411 34.8508 49.5104C35.287 49.6797 35.7549 49.7524 36.2222 49.7236C36.9227 49.7395 37.615 49.5717 38.2295 49.2371C38.8334 48.8914 39.3157 48.3694 39.6109 47.7418C39.9699 46.944 40.1421 46.0756 40.1146 45.202V36.9099H45.0071V53.6871H40.3664V49.0725L41.2154 50.4104C40.6914 51.5334 39.8154 52.4572 38.7188 53.0432C37.614 53.6357 36.3766 53.9409 35.1214 53.9304Z" fill="#209BD8"/>
<path d="M57.9145 53.9303C56.1596 53.9693 54.4214 53.5839 52.8494 52.807C51.4464 52.1189 50.2707 51.046 49.4611 49.7148C48.6515 48.3837 48.242 46.85 48.2807 45.2948C48.2492 43.7253 48.6551 42.1777 49.4535 40.8233C50.2263 39.5332 51.3382 38.477 52.6695 37.7683C54.072 37.0506 55.6245 36.6709 57.2017 36.6597C58.779 36.6485 60.3368 37.0062 61.7494 37.704C63.0605 38.3881 64.1523 39.4242 64.9007 40.6945C65.703 42.117 66.1032 43.7289 66.0591 45.3592C66.0591 45.5453 66.0447 45.7599 66.0303 45.996C66.0159 46.2321 65.9871 46.461 65.9655 46.6685H52.2594V43.8282H63.3898L61.5119 44.6724C61.5303 43.8815 61.3472 43.0988 60.9795 42.3973C60.6399 41.7666 60.1288 41.2435 59.5046 40.8877C58.8357 40.5134 58.0775 40.3255 57.3102 40.344C56.5384 40.3264 55.7758 40.5142 55.1014 40.8877C54.4672 41.245 53.9501 41.7766 53.6121 42.4187C53.2436 43.138 53.0606 43.937 53.0796 44.7439V45.4952C53.0612 46.3413 53.2724 47.1766 53.6912 47.9134C54.0951 48.6018 54.6963 49.1548 55.4179 49.5017C56.2367 49.8824 57.1333 50.0686 58.0369 50.0454C58.8449 50.0618 59.6486 49.9234 60.4039 49.6376C61.0992 49.3574 61.7323 48.9442 62.2674 48.4214L64.8719 51.2259C64.0748 52.1165 63.076 52.8056 61.958 53.2363C60.667 53.7219 59.2945 53.9575 57.9145 53.9303Z" fill="#209BD8"/>
<path d="M75.0094 53.9305C73.6092 53.9356 72.214 53.7625 70.858 53.4154C69.7417 53.1634 68.6762 52.7256 67.7067 52.1204L69.3399 48.629C70.1949 49.1422 71.1174 49.5347 72.0811 49.7952C73.0957 50.0899 74.1467 50.2416 75.2037 50.2459C76.0237 50.3055 76.846 50.1655 77.5995 49.8381C77.8109 49.7352 77.989 49.5753 78.1136 49.3768C78.2382 49.1782 78.3044 48.9489 78.3046 48.7149C78.3107 48.53 78.2621 48.3475 78.1649 48.1898C78.0677 48.0321 77.9262 47.9063 77.7578 47.8277C77.2996 47.5976 76.806 47.4452 76.2973 47.377C75.6929 47.2768 75.0238 47.1695 74.3043 47.0622C73.5709 46.9582 72.8433 46.8173 72.1243 46.6401C71.4201 46.473 70.744 46.2056 70.1169 45.8459C69.5165 45.4992 69.014 45.0069 68.6564 44.415C68.2624 43.6996 68.0732 42.8904 68.1096 42.0755C68.0935 41.0636 68.4205 40.0757 69.0377 39.271C69.7387 38.3994 70.667 37.7361 71.7214 37.3536C73.0646 36.8573 74.4905 36.6194 75.9231 36.6524C77.1033 36.6542 78.2801 36.7789 79.4342 37.0245C80.482 37.2201 81.489 37.5902 82.4128 38.1191L80.7796 41.5819C80.0195 41.1223 79.188 40.7911 78.319 40.6017C77.5322 40.4285 76.729 40.3397 75.9231 40.337C75.105 40.2808 74.2859 40.4309 73.5417 40.7734C73.3234 40.8727 73.1373 41.0303 73.0039 41.2286C72.8705 41.4269 72.7951 41.6582 72.7862 41.8967C72.7785 42.0884 72.8258 42.2783 72.9227 42.4443C73.0195 42.6103 73.1618 42.7454 73.333 42.8339C73.7916 43.0733 74.2841 43.2421 74.7936 43.3347C75.3979 43.4564 76.067 43.5708 76.7865 43.6638C77.521 43.7609 78.249 43.9019 78.9665 44.0859C79.6645 44.2581 80.3352 44.5253 80.9595 44.8801C81.554 45.2221 82.0555 45.7035 82.42 46.2824C82.8267 46.9882 83.0215 47.7951 82.9812 48.6076C82.9931 49.6081 82.6605 50.5825 82.0387 51.3692C81.3242 52.2325 80.3864 52.8855 79.3263 53.258C77.9392 53.7365 76.4772 53.9643 75.0094 53.9305Z" fill="#209BD8"/>
<path d="M83.9741 41.0238V37.282H95.6729V41.0238H83.9741ZM92.8813 53.9304C91.1975 54.0337 89.5376 53.4937 88.2406 52.4208C87.1326 51.4121 86.5786 49.9096 86.5786 47.9135V33.1968H91.4711V47.8491C91.4324 48.4476 91.6342 49.0369 92.0323 49.4875C92.2341 49.6855 92.4754 49.8393 92.7405 49.9391C93.0057 50.0389 93.2889 50.0825 93.572 50.067C94.2831 50.0861 94.9799 49.8669 95.5506 49.4446L96.8672 52.8716C96.3187 53.2432 95.7068 53.5123 95.0613 53.6657C94.3486 53.8443 93.6162 53.9333 92.8813 53.9304Z" fill="#209BD8"/>
<path d="M176.73 71.8452C176.084 71.852 175.444 71.7329 174.845 71.4947C174.277 71.2701 173.763 70.9315 173.334 70.5002C172.904 70.063 172.566 69.5449 172.341 68.9763C172.1 68.3681 171.981 67.7194 171.988 67.066C171.979 66.4125 172.099 65.7636 172.341 65.1558C172.566 64.5854 172.907 64.0668 173.341 63.6319C173.773 63.2036 174.286 62.8655 174.852 62.6374C176.104 62.1556 177.495 62.171 178.737 62.6804C179.331 62.9394 179.855 63.337 180.262 63.8394L179.197 64.8911C178.9 64.546 178.532 64.268 178.118 64.0755C177.711 63.893 177.269 63.8003 176.823 63.8036C176.387 63.7977 175.954 63.8779 175.55 64.0397C175.171 64.1923 174.83 64.4241 174.55 64.7194C174.263 65.019 174.038 65.3714 173.888 65.7568C173.571 66.6062 173.571 67.5402 173.888 68.3896C174.035 68.7764 174.261 69.1293 174.55 69.427C174.833 69.7185 175.173 69.9497 175.55 70.1067C175.955 70.2672 176.387 70.3474 176.823 70.3428C177.269 70.3461 177.711 70.2534 178.118 70.0709C178.534 69.8754 178.902 69.5922 179.197 69.241L180.262 70.307C179.853 70.8074 179.33 71.2045 178.737 71.466C178.099 71.7219 177.417 71.8507 176.73 71.8452Z" fill="#209BD8"/>
<path d="M183.55 71.8023C183.092 71.8116 182.637 71.7187 182.219 71.5304C181.858 71.3663 181.551 71.1033 181.334 70.772C181.125 70.4452 181.018 70.0646 181.025 69.6774C181.02 69.302 181.114 68.9319 181.298 68.6042C181.505 68.262 181.818 67.9959 182.19 67.8459C182.714 67.6404 183.275 67.5454 183.838 67.5668H185.802V68.6686H183.946C183.56 68.6259 183.172 68.7224 182.852 68.9405C182.761 69.027 182.689 69.1315 182.641 69.2473C182.592 69.3631 182.569 69.4877 182.572 69.613C182.567 69.7511 182.596 69.8883 182.656 70.0128C182.716 70.1374 182.806 70.2457 182.917 70.3285C183.195 70.5203 183.529 70.6135 183.867 70.5932C184.236 70.5986 184.6 70.502 184.917 70.3142C185.23 70.1256 185.466 69.8347 185.586 69.4914L185.853 70.4859C185.706 70.8959 185.414 71.2391 185.032 71.4517C184.58 71.7023 184.067 71.8236 183.55 71.8023ZM185.68 71.7093V70.2712L185.594 69.9636V67.4524C185.607 67.2444 185.576 67.036 185.504 66.8403C185.433 66.6445 185.321 66.4656 185.176 66.3148C184.825 66.0186 184.37 65.8721 183.91 65.907C183.528 65.9083 183.149 65.9711 182.788 66.093C182.445 66.2019 182.127 66.3769 181.852 66.6082L181.234 65.399C181.619 65.096 182.062 64.8722 182.536 64.7408C183.046 64.5946 183.574 64.52 184.104 64.519C184.931 64.4664 185.747 64.73 186.385 65.256C186.673 65.5572 186.894 65.9156 187.033 66.3077C187.172 66.6999 187.226 67.1168 187.191 67.5311V71.6878H185.68V71.7093Z" fill="#209BD8"/>
<path d="M189.083 74.2921V64.6193H190.594V66.2934L190.544 68.1822L190.673 70.071V74.2921H189.083ZM192.839 71.8024C192.31 71.8064 191.791 71.6679 191.335 71.4017C190.863 71.1166 190.487 70.6982 190.256 70.1998C189.967 69.5596 189.829 68.8621 189.853 68.1607C189.827 67.4584 189.96 66.7592 190.241 66.1146C190.465 65.6217 190.834 65.2077 191.299 64.9269C191.765 64.6617 192.295 64.5258 192.832 64.5334C193.452 64.5208 194.064 64.6766 194.601 64.9842C195.115 65.2858 195.535 65.7212 195.817 66.2433C196.116 66.8378 196.271 67.4929 196.271 68.1572C196.271 68.8214 196.116 69.4766 195.817 70.071C195.535 70.5951 195.115 71.0329 194.601 71.3373C194.071 71.6568 193.459 71.8182 192.839 71.8024ZM192.659 70.3858C193.017 70.3926 193.371 70.301 193.681 70.1211C193.988 69.9352 194.237 69.6676 194.4 69.3484C194.575 68.978 194.666 68.5737 194.666 68.1643C194.666 67.755 194.575 67.3506 194.4 66.9803C194.27 66.7483 194.094 66.5443 193.884 66.38C193.674 66.2158 193.433 66.0946 193.175 66.0234C192.918 65.9522 192.649 65.9325 192.384 65.9653C192.118 65.9982 191.862 66.0829 191.63 66.2147C191.321 66.3974 191.069 66.6626 190.903 66.9803C190.728 67.3506 190.637 67.755 190.637 68.1643C190.637 68.5737 190.728 68.978 190.903 69.3484C191.067 69.6696 191.319 69.9376 191.63 70.1211C191.944 70.2978 192.298 70.3892 192.659 70.3858Z" fill="#209BD8"/>
<path d="M198.458 63.4458C198.323 63.4498 198.189 63.4258 198.063 63.3753C197.938 63.3248 197.825 63.2489 197.731 63.1524C197.639 63.0602 197.566 62.9508 197.517 62.8305C197.467 62.7101 197.442 62.5813 197.443 62.4513C197.439 62.3198 197.462 62.1887 197.512 62.0667C197.561 61.9447 197.636 61.8344 197.731 61.743C197.826 61.6475 197.939 61.5728 198.064 61.5235C198.189 61.4742 198.323 61.4515 198.458 61.4568C198.591 61.4523 198.724 61.474 198.849 61.5207C198.973 61.5673 199.087 61.638 199.185 61.7287C199.278 61.8168 199.352 61.9235 199.402 62.0418C199.451 62.1601 199.475 62.2874 199.472 62.4155C199.48 62.6883 199.379 62.953 199.192 63.1524C199.099 63.252 198.985 63.3299 198.858 63.3807C198.731 63.4314 198.594 63.4536 198.458 63.4458ZM197.659 71.7092V64.6119H199.249V71.7092H197.659Z" fill="#209BD8"/>
<path d="M200.3 65.9999V64.6692H204.818V65.9999H200.3ZM203.753 71.8022C203.44 71.822 203.125 71.779 202.829 71.6758C202.532 71.5726 202.259 71.4112 202.026 71.2012C201.81 70.9585 201.644 70.6753 201.539 70.3682C201.434 70.0611 201.392 69.7362 201.415 69.4126V63.0522H203.005V69.3768C202.986 69.6601 203.073 69.9404 203.25 70.1638C203.337 70.2581 203.444 70.3319 203.564 70.3802C203.683 70.4284 203.812 70.4498 203.94 70.4428C204.261 70.4536 204.575 70.3495 204.825 70.1495L205.271 71.33C205.071 71.495 204.838 71.6168 204.588 71.6877C204.317 71.7652 204.036 71.8038 203.753 71.8022Z" fill="#209BD8"/>
<path d="M208.495 71.8023C208.036 71.8116 207.581 71.7187 207.164 71.5304C206.802 71.3663 206.495 71.1033 206.279 70.772C206.07 70.4452 205.962 70.0646 205.969 69.6774C205.964 69.302 206.058 68.9319 206.243 68.6042C206.45 68.262 206.763 67.9959 207.135 67.8459C207.659 67.6404 208.22 67.5454 208.782 67.5668H210.747V68.6686H208.89C208.505 68.6259 208.117 68.7224 207.797 68.9405C207.705 69.027 207.633 69.1315 207.585 69.2473C207.537 69.3631 207.513 69.4877 207.516 69.613C207.512 69.7511 207.541 69.8883 207.601 70.0128C207.661 70.1374 207.75 70.2457 207.861 70.3285C208.139 70.5203 208.474 70.6135 208.811 70.5932C209.181 70.5986 209.544 70.502 209.862 70.3142C210.174 70.1256 210.411 69.8347 210.531 69.4914L210.797 70.4859C210.65 70.8959 210.359 71.2391 209.977 71.4517C209.525 71.7038 209.012 71.8253 208.495 71.8023ZM210.631 71.7093V70.2712L210.545 69.9636V67.4524C210.558 67.2444 210.528 67.036 210.456 66.8403C210.384 66.6445 210.272 66.4656 210.128 66.3148C209.776 66.0186 209.321 65.8721 208.862 65.907C208.48 65.9083 208.101 65.9711 207.739 66.093C207.396 66.2019 207.079 66.3769 206.804 66.6082L206.185 65.399C206.571 65.096 207.014 64.8722 207.487 64.7408C207.997 64.5946 208.525 64.52 209.056 64.519C209.883 64.4664 210.699 64.73 211.337 65.256C211.625 65.5572 211.846 65.9156 211.984 66.3077C212.123 66.6999 212.177 67.1168 212.142 67.5311V71.6878H210.631V71.7093Z" fill="#209BD8"/>
<path d="M214.027 71.7092V61.8503H215.618V71.7092H214.027Z" fill="#209BD8"/>
<path d="M173.269 77.8479C173.134 77.8519 173 77.8279 172.874 77.7774C172.749 77.7269 172.636 77.651 172.542 77.5545C172.45 77.4623 172.377 77.3529 172.328 77.2326C172.278 77.1122 172.253 76.9834 172.254 76.8534C172.25 76.7219 172.273 76.5908 172.323 76.4688C172.372 76.3468 172.447 76.2365 172.542 76.1451C172.637 76.0496 172.75 75.9749 172.875 75.9256C173 75.8763 173.134 75.8536 173.269 75.8589C173.402 75.8544 173.535 75.8761 173.659 75.9228C173.784 75.9694 173.898 76.0401 173.996 76.1308C174.089 76.2189 174.163 76.3256 174.213 76.4439C174.262 76.5622 174.286 76.6895 174.283 76.8176C174.291 77.0904 174.19 77.3551 174.003 77.5545C173.908 77.6517 173.793 77.7279 173.667 77.7785C173.541 77.829 173.405 77.8526 173.269 77.8479ZM172.47 86.1041V79.0069H174.06V86.1041H172.47Z" fill="#209BD8"/>
<path d="M179.852 78.9352C180.356 78.9288 180.854 79.0416 181.305 79.2643C181.738 79.4919 182.09 79.8467 182.313 80.2802C182.577 80.8285 182.703 81.4326 182.68 82.0402V86.104H181.09V82.2549C181.127 81.7491 180.976 81.2473 180.665 80.8454C180.513 80.6872 180.328 80.5636 180.123 80.4833C179.918 80.403 179.698 80.3679 179.478 80.3804C179.132 80.3736 178.79 80.4548 178.485 80.6165C178.194 80.7778 177.96 81.0253 177.816 81.3248C177.645 81.697 177.564 82.1036 177.579 82.5124V86.0968H175.988V78.9996H177.499V80.9241L177.233 80.3375C177.464 79.8926 177.825 79.5282 178.269 79.2929C178.761 79.0499 179.303 78.9272 179.852 78.9352Z" fill="#209BD8"/>
<path d="M186.248 86.1041L183.342 79.0068H184.989L187.486 85.267H186.673L189.263 79.0068H190.788L187.882 86.1041H186.248Z" fill="#209BD8"/>
<path d="M194.652 86.1972C193.965 86.2136 193.285 86.0508 192.68 85.725C192.131 85.4238 191.677 84.9751 191.371 84.43C191.057 83.8555 190.898 83.2095 190.911 82.5556C190.897 81.9001 191.053 81.2523 191.364 80.6739C191.652 80.141 192.083 79.6978 192.608 79.3933C193.157 79.0786 193.781 78.9179 194.414 78.9283C195.032 78.9175 195.641 79.0732 196.177 79.379C196.694 79.6821 197.115 80.1233 197.393 80.6525C197.701 81.252 197.854 81.9183 197.839 82.5913C197.839 82.6629 197.839 82.7416 197.832 82.8274L197.81 83.0778H192.162V81.9761H196.969L196.35 82.3195C196.365 81.9474 196.283 81.5777 196.112 81.2463C195.949 80.9482 195.711 80.697 195.422 80.5165C195.118 80.3358 194.769 80.2441 194.414 80.2518C194.056 80.2431 193.702 80.3349 193.393 80.5165C193.1 80.694 192.864 80.9493 192.709 81.2535C192.538 81.5979 192.454 81.9785 192.465 82.3624V82.6271C192.457 83.0218 192.554 83.4115 192.745 83.7575C192.927 84.081 193.199 84.3447 193.529 84.5159C193.89 84.6986 194.29 84.7896 194.695 84.7806C195.047 84.785 195.396 84.7219 195.724 84.5946C196.037 84.4639 196.315 84.2631 196.537 84.0079L197.386 85.031C197.078 85.4057 196.683 85.7003 196.235 85.8896C195.736 86.1058 195.196 86.2109 194.652 86.1972Z" fill="#209BD8"/>
<path d="M201.329 86.197C200.776 86.1977 200.226 86.1206 199.695 85.968C199.254 85.8488 198.836 85.6578 198.458 85.4028L199.069 84.1436C199.409 84.362 199.777 84.533 200.163 84.6516C200.572 84.7837 200.999 84.8513 201.429 84.8519C201.804 84.879 202.18 84.8049 202.516 84.6373C202.619 84.5808 202.704 84.4978 202.764 84.3971C202.823 84.2964 202.854 84.1817 202.854 84.0649C202.858 83.9774 202.839 83.8904 202.798 83.8126C202.758 83.7347 202.698 83.6688 202.624 83.6214C202.44 83.5085 202.238 83.4286 202.027 83.3853C201.782 83.3352 201.508 83.2851 201.206 83.2422C200.904 83.1992 200.609 83.1348 200.307 83.0633C200.019 82.9949 199.742 82.884 199.487 82.7342C199.24 82.5895 199.035 82.3852 198.89 82.1404C198.724 81.8406 198.645 81.5017 198.659 81.1602C198.649 80.7397 198.778 80.3276 199.026 79.9869C199.294 79.6401 199.653 79.3729 200.062 79.2142C200.567 79.0234 201.105 78.9311 201.645 78.9423C202.11 78.9421 202.574 78.9949 203.027 79.0997C203.435 79.1859 203.826 79.3382 204.185 79.5505L203.573 80.8096C203.275 80.6179 202.947 80.4776 202.602 80.3947C202.283 80.3214 201.958 80.283 201.631 80.2802C201.259 80.2554 200.888 80.3347 200.559 80.5092C200.455 80.5659 200.368 80.6485 200.306 80.7489C200.244 80.8492 200.21 80.9639 200.206 81.0815C200.201 81.1742 200.219 81.2668 200.259 81.3506C200.3 81.4345 200.361 81.5068 200.436 81.5609C200.617 81.6817 200.82 81.7667 201.034 81.8113C201.303 81.8803 201.577 81.9305 201.854 81.9615C202.155 82.0032 202.452 82.0629 202.746 82.1404C203.033 82.2145 203.308 82.3251 203.566 82.4695C203.817 82.6044 204.026 82.8047 204.171 83.049C204.343 83.3839 204.421 83.7593 204.396 84.1348C204.37 84.5104 204.243 84.8721 204.027 85.181C203.75 85.5262 203.384 85.7906 202.969 85.9466C202.441 86.1231 201.886 86.2078 201.329 86.197Z" fill="#209BD8"/>
<path d="M204.739 80.3949V79.0642H209.257V80.3949H204.739ZM208.192 86.1972C207.879 86.217 207.564 86.1741 207.268 86.0708C206.971 85.9676 206.698 85.8062 206.466 85.5962C206.249 85.3536 206.084 85.0704 205.979 84.7632C205.874 84.4561 205.831 84.1312 205.854 83.8076V77.4473H207.444V83.7718C207.425 84.0552 207.513 84.3354 207.689 84.5588C207.776 84.6531 207.883 84.727 208.003 84.7752C208.122 84.8235 208.251 84.8448 208.38 84.8378C208.7 84.8486 209.014 84.7445 209.264 84.5445L209.711 85.725C209.51 85.89 209.277 86.0118 209.027 86.0827C208.756 86.1608 208.475 86.1993 208.192 86.1972Z" fill="#209BD8"/>
<path d="M211.696 77.8479C211.561 77.8519 211.427 77.8279 211.302 77.7774C211.177 77.7269 211.064 77.651 210.97 77.5545C210.878 77.4623 210.805 77.3529 210.755 77.2326C210.706 77.1122 210.681 76.9834 210.682 76.8534C210.677 76.7219 210.7 76.5908 210.75 76.4688C210.8 76.3468 210.874 76.2365 210.97 76.1451C211.064 76.0496 211.177 75.9749 211.303 75.9256C211.428 75.8763 211.562 75.8536 211.696 75.8589C211.829 75.8544 211.962 75.8761 212.087 75.9228C212.212 75.9694 212.326 76.0401 212.423 76.1308C212.517 76.2189 212.591 76.3256 212.64 76.4439C212.69 76.5622 212.714 76.6895 212.711 76.8176C212.718 77.0904 212.617 77.3551 212.43 77.5545C212.335 77.6517 212.221 77.7279 212.094 77.7785C211.968 77.829 211.832 77.8526 211.696 77.8479ZM210.898 86.1041V79.0069H212.488V86.1041H210.898Z" fill="#209BD8"/>
<path d="M216.531 86.197C215.979 86.1977 215.429 86.1206 214.898 85.968C214.457 85.8488 214.039 85.6578 213.661 85.4028L214.272 84.1436C214.611 84.362 214.979 84.533 215.366 84.6516C215.775 84.7837 216.202 84.8513 216.632 84.8519C217.007 84.879 217.382 84.8049 217.718 84.6373C217.821 84.5808 217.907 84.4978 217.966 84.3971C218.026 84.2964 218.057 84.1817 218.057 84.0649C218.061 83.9774 218.041 83.8904 218.001 83.8126C217.961 83.7347 217.9 83.6688 217.826 83.6214C217.643 83.5085 217.441 83.4286 217.229 83.3853C216.985 83.3352 216.711 83.2851 216.409 83.2422C216.107 83.1992 215.812 83.1348 215.51 83.0633C215.221 82.9949 214.945 82.884 214.689 82.7342C214.443 82.5895 214.238 82.3852 214.092 82.1404C213.927 81.8406 213.847 81.5017 213.862 81.1602C213.852 80.7397 213.981 80.3276 214.229 79.9869C214.497 79.6401 214.855 79.3729 215.265 79.2142C215.77 79.0234 216.308 78.9311 216.848 78.9423C217.313 78.9421 217.776 78.9949 218.229 79.0997C218.638 79.1859 219.029 79.3382 219.388 79.5505L218.776 80.8096C218.478 80.6179 218.15 80.4776 217.805 80.3947C217.486 80.3214 217.16 80.283 216.833 80.2802C216.462 80.2554 216.09 80.3347 215.761 80.5092C215.658 80.5659 215.571 80.6485 215.509 80.7489C215.447 80.8492 215.413 80.9639 215.409 81.0815C215.403 81.1742 215.422 81.2668 215.462 81.3506C215.502 81.4345 215.563 81.5068 215.639 81.5609C215.82 81.6817 216.023 81.7667 216.236 81.8113C216.506 81.8803 216.78 81.9305 217.056 81.9615C217.357 82.0032 217.655 82.0629 217.949 82.1404C218.235 82.2145 218.511 82.3251 218.769 82.4695C219.02 82.6044 219.229 82.8047 219.373 83.049C219.546 83.3839 219.624 83.7593 219.598 84.1348C219.573 84.5104 219.446 84.8721 219.229 85.181C218.952 85.5262 218.587 85.7906 218.172 85.9466C217.643 86.123 217.088 86.2077 216.531 86.197Z" fill="#209BD8"/>
<path d="M222.942 86.197C222.389 86.1977 221.839 86.1206 221.309 85.968C220.868 85.8488 220.449 85.6578 220.071 85.4028L220.683 84.1436C221.022 84.362 221.39 84.533 221.776 84.6516C222.185 84.7837 222.612 84.8513 223.043 84.8519C223.417 84.879 223.793 84.8049 224.129 84.6373C224.232 84.5808 224.317 84.4978 224.377 84.3971C224.436 84.2964 224.467 84.1817 224.467 84.0649C224.471 83.9774 224.452 83.8904 224.412 83.8126C224.371 83.7347 224.311 83.6688 224.237 83.6214C224.053 83.5085 223.851 83.4286 223.64 83.3853C223.395 83.3352 223.122 83.2851 222.819 83.2422C222.517 83.1992 222.222 83.1348 221.92 83.0633C221.632 82.9949 221.355 82.884 221.1 82.7342C220.854 82.5895 220.648 82.3852 220.503 82.1404C220.338 81.8406 220.258 81.5017 220.273 81.1602C220.263 80.7397 220.391 80.3276 220.639 79.9869C220.907 79.6401 221.266 79.3729 221.675 79.2142C222.181 79.0234 222.718 78.9311 223.258 78.9423C223.723 78.9421 224.187 78.9949 224.64 79.0997C225.048 79.1859 225.439 79.3382 225.798 79.5505L225.187 80.8096C224.889 80.6179 224.56 80.4776 224.215 80.3947C223.897 80.3214 223.571 80.283 223.244 80.2802C222.872 80.2554 222.501 80.3347 222.172 80.5092C222.068 80.5659 221.981 80.6485 221.919 80.7489C221.858 80.8492 221.823 80.9639 221.819 81.0815C221.814 81.1742 221.832 81.2668 221.872 81.3506C221.913 81.4345 221.974 81.5068 222.05 81.5609C222.231 81.6817 222.433 81.7667 222.647 81.8113C222.916 81.8803 223.19 81.9305 223.467 81.9615C223.768 82.0032 224.066 82.0629 224.359 82.1404C224.646 82.2145 224.921 82.3251 225.179 82.4695C225.43 82.6044 225.639 82.8047 225.784 83.049C225.956 83.3839 226.034 83.7593 226.009 84.1348C225.984 84.5104 225.856 84.8721 225.64 85.181C225.363 85.5262 224.998 85.7906 224.582 85.9466C224.054 86.123 223.499 86.2077 222.942 86.197Z" fill="#209BD8"/>
<path d="M230.439 86.1972C229.751 86.2136 229.072 86.0508 228.467 85.725C227.918 85.4238 227.464 84.9751 227.158 84.43C226.844 83.8555 226.685 83.2095 226.697 82.5556C226.684 81.9001 226.84 81.2523 227.151 80.6739C227.439 80.141 227.87 79.6978 228.395 79.3933C228.944 79.0786 229.568 78.9179 230.201 78.9283C230.819 78.9175 231.428 79.0732 231.964 79.379C232.481 79.6821 232.902 80.1233 233.18 80.6525C233.488 81.252 233.641 81.9183 233.626 82.5913C233.626 82.6629 233.626 82.7416 233.619 82.8274L233.597 83.0778H227.949V81.9761H232.763L232.144 82.3195C232.159 81.9474 232.077 81.5777 231.907 81.2463C231.743 80.9482 231.505 80.697 231.216 80.5165C230.912 80.3358 230.563 80.2441 230.209 80.2518C229.85 80.2431 229.496 80.3349 229.187 80.5165C228.894 80.694 228.658 80.9493 228.503 81.2535C228.333 81.5979 228.249 81.9785 228.259 82.3624V82.6271C228.252 83.0218 228.348 83.4115 228.539 83.7575C228.721 84.081 228.993 84.3447 229.324 84.5159C229.684 84.6986 230.085 84.7896 230.489 84.7806C230.841 84.785 231.19 84.7219 231.518 84.5946C231.831 84.4639 232.109 84.2631 232.331 84.0079L233.18 85.031C232.872 85.4057 232.477 85.7003 232.029 85.8896C231.528 86.1065 230.985 86.2115 230.439 86.1972Z" fill="#209BD8"/>
<path d="M243.576 78.9353C244.076 78.9279 244.57 79.0408 245.015 79.2644C245.442 79.4932 245.786 79.8482 246.001 80.2803C246.257 80.831 246.378 81.4342 246.354 82.0403V86.1041H244.764V82.2549C244.803 81.7535 244.662 81.2544 244.368 80.8455C244.227 80.688 244.053 80.5643 243.857 80.4838C243.661 80.4032 243.45 80.3679 243.238 80.3805C242.915 80.3743 242.597 80.456 242.317 80.6166C242.044 80.7819 241.828 81.0266 241.699 81.3177C241.536 81.6895 241.46 82.093 241.476 82.4982V86.0969H239.886V82.2478C239.924 81.7463 239.784 81.2473 239.49 80.8384C239.349 80.6809 239.175 80.5572 238.979 80.4766C238.783 80.396 238.572 80.3607 238.36 80.3733C238.037 80.3672 237.719 80.4488 237.439 80.6094C237.166 80.7747 236.95 81.0194 236.821 81.3105C236.658 81.6823 236.582 82.0859 236.598 82.491V86.0897H235.007V78.9925H236.518V80.8813L236.252 80.3232C236.468 79.8805 236.814 79.5137 237.245 79.2715C237.703 79.0295 238.216 78.9064 238.734 78.9138C239.325 78.9005 239.904 79.0733 240.389 79.4075C240.878 79.7693 241.212 80.3004 241.325 80.8956L240.706 80.6666C240.924 80.1371 241.308 79.6909 241.799 79.3932C242.339 79.0842 242.953 78.926 243.576 78.9353Z" fill="#209BD8"/>
<path d="M251.455 86.1972C250.768 86.2136 250.088 86.0508 249.483 85.725C248.934 85.4238 248.48 84.9751 248.174 84.43C247.86 83.8555 247.701 83.2095 247.714 82.5556C247.7 81.9001 247.856 81.2523 248.167 80.6739C248.455 80.141 248.886 79.6978 249.411 79.3933C249.96 79.0786 250.584 78.9179 251.217 78.9283C251.835 78.9175 252.444 79.0732 252.98 79.379C253.497 79.6821 253.918 80.1233 254.196 80.6525C254.504 81.252 254.657 81.9183 254.642 82.5913C254.642 82.6629 254.642 82.7416 254.635 82.8274L254.613 83.0778H248.965V81.9761H253.772L253.153 82.3195C253.168 81.9474 253.086 81.5777 252.915 81.2463C252.752 80.9482 252.514 80.697 252.225 80.5165C251.921 80.3358 251.571 80.2441 251.217 80.2518C250.859 80.2431 250.505 80.3349 250.196 80.5165C249.903 80.694 249.667 80.9493 249.512 81.2535C249.341 81.5979 249.258 81.9785 249.268 82.3624V82.6271C249.26 83.0218 249.357 83.4115 249.548 83.7575C249.73 84.081 250.002 84.3447 250.332 84.5159C250.693 84.6986 251.093 84.7896 251.498 84.7806C251.85 84.785 252.199 84.7219 252.527 84.5946C252.84 84.4639 253.118 84.2631 253.34 84.0079L254.189 85.031C253.881 85.4057 253.486 85.7003 253.038 85.8896C252.539 86.1072 251.999 86.2123 251.455 86.1972Z" fill="#209BD8"/>
<path d="M259.887 78.9353C260.391 78.9289 260.889 79.0417 261.34 79.2644C261.773 79.492 262.125 79.8467 262.348 80.2803C262.612 80.8285 262.738 81.4327 262.715 82.0403V86.104H261.125V82.2549C261.162 81.7492 261.011 81.2474 260.7 80.8455C260.548 80.6872 260.363 80.5637 260.158 80.4834C259.953 80.4031 259.733 80.368 259.513 80.3805C259.167 80.3736 258.825 80.4549 258.52 80.6166C258.229 80.7779 257.995 81.0254 257.851 81.3248C257.68 81.6971 257.599 82.1037 257.614 82.5125V86.0969H256.023V78.9996H257.534V80.9242L257.268 80.3375C257.499 79.8926 257.86 79.5283 258.304 79.293C258.795 79.0491 259.338 78.9264 259.887 78.9353Z" fill="#209BD8"/>
<path d="M263.7 80.3949V79.0642H268.219V80.3949H263.7ZM267.154 86.1972C266.84 86.217 266.526 86.1741 266.229 86.0708C265.933 85.9676 265.66 85.8062 265.427 85.5962C265.211 85.3536 265.045 85.0704 264.94 84.7632C264.835 84.4561 264.793 84.1312 264.816 83.8076V77.4473H266.406V83.7718C266.387 84.0552 266.474 84.3354 266.65 84.5588C266.738 84.6531 266.845 84.727 266.964 84.7752C267.084 84.8235 267.212 84.8448 267.341 84.8378C267.662 84.8486 267.976 84.7445 268.226 84.5445L268.672 85.725C268.472 85.89 268.239 86.0118 267.988 86.0827C267.717 86.1608 267.436 86.1993 267.154 86.1972Z" fill="#209BD8"/>
<path d="M110.473 54.0592C108.861 54.0724 107.262 53.7911 105.753 53.2293C104.347 52.7067 103.062 51.9059 101.976 50.8755C100.91 49.8596 100.06 48.6406 99.4789 47.2911C98.2894 44.3927 98.2894 41.1462 99.4789 38.2478C100.06 36.8948 100.915 35.6748 101.99 34.6634C103.081 33.639 104.364 32.8391 105.767 32.3096C108.974 31.1607 112.492 31.2167 115.66 32.467C117.167 33.1006 118.496 34.0903 119.531 35.3503L116.272 38.3408C115.577 37.5359 114.722 36.883 113.761 36.4234C112.817 35.995 111.79 35.7777 110.753 35.7867C109.79 35.7748 108.833 35.9448 107.933 36.2875C107.1 36.6062 106.343 37.0935 105.71 37.7184C105.077 38.3491 104.58 39.1013 104.249 39.9291C103.558 41.7604 103.558 43.7785 104.249 45.6098C104.577 46.439 105.075 47.1917 105.71 47.8205C106.341 48.4477 107.099 48.9353 107.933 49.2514C108.833 49.5941 109.79 49.7641 110.753 49.7522C111.791 49.762 112.817 49.5446 113.761 49.1155C114.729 48.6547 115.586 47.9908 116.272 47.1694L119.531 50.16C118.493 51.4205 117.165 52.4143 115.66 53.0576C114.019 53.7451 112.253 54.0861 110.473 54.0592Z" fill="#272A5F"/>
<path d="M122.61 53.6873V36.91H127.28V41.6535L126.618 40.2798C127.088 39.1314 127.942 38.1791 129.035 37.5826C130.281 36.9343 131.673 36.6165 133.079 36.6596V41.1527C132.87 41.1312 132.683 41.1169 132.517 41.1026C132.352 41.0883 132.172 41.0883 131.985 41.0883C130.796 41.0352 129.633 41.443 128.74 42.2258C127.913 42.9842 127.5 44.1647 127.503 45.7673V53.6873H122.61Z" fill="#272A5F"/>
<path d="M143.871 53.9303C142.206 53.9629 140.56 53.5765 139.086 52.8071C137.735 52.0913 136.598 51.0323 135.791 49.7378C135.176 48.7474 134.773 47.6417 134.606 46.4895C134.439 45.3373 134.512 44.1633 134.821 43.0406C135.13 41.9178 135.669 40.8703 136.402 39.9633C137.136 39.0563 138.05 38.3091 139.086 37.7684C140.571 37.0389 142.204 36.6594 143.86 36.6594C145.516 36.6594 147.149 37.0389 148.634 37.7684C150.011 38.491 151.163 39.5734 151.967 40.8991C152.77 42.2247 153.195 43.7434 153.195 45.2913C153.195 46.8393 152.77 48.3579 151.967 49.6835C151.163 51.0092 150.011 52.0916 148.634 52.8142C147.165 53.5756 145.527 53.9593 143.871 53.9303ZM143.871 49.9381C144.639 49.9499 145.397 49.7572 146.065 49.3801C146.719 48.9993 147.252 48.4442 147.605 47.7775C147.975 47.0002 148.166 46.1511 148.166 45.2913C148.166 44.4315 147.975 43.5824 147.605 42.8051C147.252 42.1424 146.718 41.592 146.065 41.2168C145.393 40.8507 144.638 40.6588 143.871 40.6588C143.104 40.6588 142.349 40.8507 141.676 41.2168C141.022 41.5954 140.485 42.1447 140.122 42.8051C139.739 43.5785 139.54 44.4291 139.54 45.2913C139.54 46.1535 139.739 47.0041 140.122 47.7775C140.483 48.4435 141.02 48.998 141.676 49.3801C142.345 49.7581 143.102 49.9508 143.871 49.9381Z" fill="#272A5F"/>
<path d="M156.383 53.6871V36.9099H161.275V53.6871H156.383Z" fill="#272A5F"/>
<path d="M171.499 53.9305C170.096 53.9352 168.699 53.7621 167.34 53.4154C166.224 53.1634 165.159 52.7256 164.189 52.1204L165.822 48.629C166.677 49.1422 167.6 49.5347 168.563 49.7952C169.578 50.0899 170.629 50.2416 171.686 50.2459C172.506 50.3055 173.328 50.1655 174.082 49.8381C174.293 49.7352 174.471 49.5753 174.596 49.3768C174.721 49.1782 174.787 48.9489 174.787 48.7149C174.791 48.5303 174.742 48.3484 174.645 48.191C174.548 48.0337 174.408 47.9075 174.24 47.8277C173.781 47.5998 173.288 47.4475 172.78 47.377C172.175 47.2768 171.506 47.1695 170.787 47.0622C170.053 46.9582 169.326 46.8173 168.607 46.6401C167.902 46.473 167.226 46.2056 166.599 45.8459C165.999 45.4992 165.496 45.0069 165.139 44.415C164.745 43.6996 164.556 42.8904 164.592 42.0755C164.576 41.0636 164.903 40.0757 165.52 39.271C166.221 38.3994 167.149 37.7361 168.204 37.3536C169.547 36.8573 170.973 36.6194 172.405 36.6524C173.586 36.6542 174.762 36.7789 175.917 37.0245C176.964 37.2201 177.971 37.5902 178.895 38.1191L177.262 41.5819C176.502 41.1223 175.67 40.7911 174.801 40.6017C174.015 40.4285 173.211 40.3397 172.405 40.337C171.587 40.2817 170.769 40.4318 170.024 40.7734C169.806 40.8727 169.62 41.0303 169.486 41.2286C169.353 41.4269 169.277 41.6582 169.269 41.8967C169.261 42.0884 169.308 42.2783 169.405 42.4443C169.502 42.6103 169.644 42.7454 169.815 42.8339C170.274 43.0733 170.766 43.2421 171.276 43.3347C171.88 43.4564 172.542 43.5708 173.269 43.6638C174.003 43.7609 174.731 43.9019 175.449 44.0859C176.147 44.2581 176.818 44.5253 177.442 44.8801C178.036 45.2221 178.538 45.7035 178.902 46.2824C179.309 46.9882 179.504 47.7951 179.464 48.6076C179.475 49.6081 179.143 50.5825 178.521 51.3692C177.807 52.2325 176.869 52.8855 175.809 53.258C174.424 53.7371 172.964 53.9649 171.499 53.9305Z" fill="#272A5F"/>
<path d="M188.148 53.9305C186.745 53.9352 185.348 53.7621 183.989 53.4154C182.873 53.1634 181.807 52.7256 180.838 52.1204L182.471 48.629C183.326 49.1422 184.249 49.5347 185.212 49.7952C186.227 50.0899 187.278 50.2416 188.335 50.2459C189.155 50.3055 189.977 50.1655 190.731 49.8381C190.942 49.7352 191.12 49.5753 191.245 49.3768C191.369 49.1782 191.436 48.9489 191.436 48.7149C191.44 48.5303 191.391 48.3484 191.294 48.191C191.197 48.0337 191.056 47.9075 190.889 47.8277C190.43 47.5998 189.937 47.4475 189.428 47.377C188.824 47.2768 188.155 47.1695 187.435 47.0622C186.702 46.9582 185.974 46.8173 185.255 46.6401C184.551 46.473 183.875 46.2056 183.248 45.8459C182.648 45.4992 182.145 45.0069 181.788 44.415C181.394 43.6996 181.204 42.8904 181.241 42.0755C181.225 41.0636 181.552 40.0757 182.169 39.271C182.87 38.3994 183.798 37.7361 184.853 37.3536C186.196 36.8573 187.622 36.6194 189.054 36.6524C190.234 36.6542 191.411 36.7789 192.565 37.0245C193.613 37.2201 194.62 37.5902 195.544 38.1191L193.911 41.5819C193.151 41.1223 192.319 40.7911 191.45 40.6017C190.663 40.4285 189.86 40.3397 189.054 40.337C188.236 40.2817 187.417 40.4318 186.673 40.7734C186.455 40.8727 186.268 41.0303 186.135 41.2286C186.002 41.4269 185.926 41.6582 185.917 41.8967C185.91 42.0884 185.957 42.2783 186.054 42.4443C186.151 42.6103 186.293 42.7454 186.464 42.8339C186.923 43.0733 187.415 43.2421 187.925 43.3347C188.529 43.4564 189.191 43.5708 189.918 43.6638C190.652 43.7609 191.38 43.9019 192.098 44.0859C192.796 44.2581 193.466 44.5253 194.091 44.8801C194.685 45.2221 195.187 45.7035 195.551 46.2824C195.958 46.9882 196.153 47.7951 196.112 48.6076C196.124 49.6081 195.792 50.5825 195.17 51.3692C194.455 52.2325 193.518 52.8855 192.457 53.258C191.073 53.7371 189.613 53.9649 188.148 53.9305Z" fill="#272A5F"/>
<path d="M204.329 53.9305C203.163 53.9625 202.004 53.7327 200.94 53.258C200.059 52.8657 199.308 52.2331 198.774 51.4336C198.27 50.6639 198.007 49.7624 198.019 48.8437C197.999 47.9181 198.255 47.0073 198.753 46.2251C199.328 45.4095 200.146 44.7939 201.091 44.4651C202.429 43.9935 203.845 43.7775 205.264 43.8284H209.747V46.6687H205.797C204.967 46.5826 204.132 46.7794 203.429 47.2267C203.225 47.3989 203.062 47.6139 202.951 47.8564C202.84 48.0989 202.785 48.3627 202.789 48.629C202.78 48.9168 202.842 49.2024 202.97 49.4607C203.098 49.719 203.288 49.942 203.523 50.11C204.12 50.5041 204.829 50.6949 205.545 50.6537C206.316 50.6652 207.075 50.4646 207.739 50.0742C208.391 49.683 208.888 49.0823 209.149 48.3715L209.905 50.618C209.588 51.6501 208.895 52.5276 207.962 53.0791C206.854 53.6914 205.596 53.9861 204.329 53.9305ZM209.473 53.6872V50.4105L209.157 49.695V43.8355C209.183 43.3854 209.111 42.935 208.946 42.5152C208.781 42.0953 208.526 41.7159 208.2 41.403C207.367 40.759 206.323 40.4477 205.271 40.5302C204.372 40.5312 203.478 40.6736 202.624 40.9523C201.824 41.1951 201.076 41.5805 200.415 42.0898L198.659 38.6915C199.672 38.0048 200.796 37.4988 201.983 37.1962C203.27 36.8455 204.599 36.6674 205.933 36.6667C208.502 36.6667 210.5 37.2701 211.927 38.4768C213.344 39.6859 214.054 41.5676 214.056 44.1217V53.6944L209.473 53.6872Z" fill="#272A5F"/>
<path d="M228.726 36.6594C229.969 36.6383 231.2 36.9105 232.317 37.4536C233.38 37.9883 234.25 38.8383 234.806 39.8861C235.457 41.1857 235.769 42.6276 235.713 44.0786V53.6799H230.82V44.8227C230.91 43.7498 230.592 42.6824 229.928 41.8321C229.601 41.5009 229.206 41.2433 228.771 41.0767C228.335 40.9101 227.868 40.8383 227.403 40.8662C226.678 40.8566 225.961 41.0236 225.316 41.3528C224.69 41.6811 224.186 42.2 223.877 42.8337C223.503 43.6322 223.326 44.5077 223.359 45.3879V53.6799H218.467V36.9027H223.136V41.5459L222.258 40.1436C222.846 39.0405 223.753 38.1382 224.863 37.5537C226.057 36.9435 227.384 36.6362 228.726 36.6594Z" fill="#272A5F"/>
<path d="M248.419 53.9304C246.731 53.9596 245.061 53.5789 243.555 52.8215C242.178 52.1258 241.022 51.0632 240.217 49.7522C239.596 48.76 239.188 47.6505 239.021 46.4938C238.853 45.3371 238.928 44.1583 239.242 43.0321C239.556 41.9058 240.101 40.8565 240.843 39.9505C241.586 39.0445 242.509 38.3015 243.555 37.7685C245.061 37.0103 246.731 36.6296 248.419 36.6595C250.036 36.6218 251.636 37.004 253.059 37.7685C254.35 38.4798 255.373 39.5899 255.973 40.9307L252.182 42.9555C251.807 42.2322 251.236 41.6276 250.534 41.2098C249.879 40.8388 249.137 40.6463 248.383 40.6517C247.594 40.6401 246.815 40.8323 246.123 41.2098C245.456 41.5809 244.908 42.1314 244.541 42.7981C244.157 43.5752 243.958 44.4293 243.958 45.295C243.958 46.1606 244.157 47.0147 244.541 47.7919C244.908 48.4586 245.456 49.009 246.123 49.3802C246.815 49.7576 247.594 49.9499 248.383 49.9382C249.135 49.9442 249.876 49.7569 250.534 49.3945C251.243 48.9791 251.816 48.3676 252.182 47.6345L255.973 49.695C255.368 51.0251 254.345 52.1245 253.059 52.8286C251.635 53.5907 250.036 53.9704 248.419 53.9304Z" fill="#272A5F"/>
<path d="M266.952 53.9305C265.197 53.9696 263.459 53.5841 261.887 52.8073C260.499 52.1159 259.333 51.0529 258.52 49.738C257.741 48.381 257.329 46.8462 257.326 45.2836C257.322 43.7211 257.726 42.1843 258.499 40.8235C259.271 39.5335 260.383 38.4773 261.715 37.7686C263.117 37.0509 264.67 36.6711 266.247 36.6599C267.824 36.6487 269.382 37.0065 270.794 37.7042C272.106 38.3883 273.197 39.4244 273.946 40.6948C274.748 42.1173 275.148 43.7291 275.104 45.3595C275.104 45.5455 275.097 45.7601 275.075 45.9962C275.054 46.2323 275.032 46.4613 275.011 46.6687H261.305V43.8284H272.435L270.55 44.6727C270.568 43.8818 270.385 43.0991 270.017 42.3975C269.678 41.7668 269.167 41.2438 268.542 40.8879C267.874 40.5136 267.115 40.3258 266.348 40.3442C265.576 40.3267 264.814 40.5144 264.139 40.8879C263.505 41.2453 262.988 41.7769 262.65 42.419C262.281 43.1382 262.099 43.9372 262.118 44.7442V45.4954C262.099 46.3415 262.31 47.1769 262.729 47.9136C263.133 48.6021 263.734 49.1551 264.456 49.5019C265.275 49.8827 266.171 50.0688 267.075 50.0457C267.883 50.062 268.686 49.9236 269.442 49.6379C270.137 49.3576 270.77 48.9444 271.305 48.4216L273.91 51.2262C273.113 52.1167 272.114 52.8058 270.996 53.2366C269.705 53.7222 268.332 53.9577 266.952 53.9305Z" fill="#272A5F"/>
</g>
<defs>
<clipPath id="clip0_20_290">
<rect width="277" height="88" fill="white" transform="translate(0.5)"/>
</clipPath>
</defs>
</svg>
